<svg xmlns="http://www.w3.org/2000/svg" version="1.1" xmlns:xlink="http://www.w3.org/1999/xlink" xmlns:svgjs="http://svgjs.com/svgjs" width="1440" height="560" preserveAspectRatio="none" viewBox="0 0 1440 560"><g mask="url(&quot;#SvgjsMask1009&quot;)" fill="none"><path d="M1083.983,223.277C1114.438,222.391,1137.332,197.557,1150.728,170.192C1162.47,146.206,1160.31,118.421,1146.503,95.561C1133.189,73.517,1109.691,61.205,1083.983,59.683C1054.871,57.959,1022.966,62.794,1007.172,87.31C990.335,113.446,994.864,147.212,1010.156,174.281C1025.726,201.843,1052.34,224.197,1083.983,223.277" fill="rgba(28, 83, 142, 0.4)" class="triangle-float3"></path><path d="M851.886,323.115C869.94,323.798,891.355,324.026,900.236,308.292C909.048,292.681,897.528,274.688,887.671,259.716C879.11,246.713,867.454,234.794,851.886,234.853C836.399,234.911,824.589,246.738,816.566,259.985C808.158,273.867,801.561,290.693,809.485,304.857C817.538,319.25,835.405,322.491,851.886,323.115" fill="rgba(28, 83, 142, 0.4)" class="triangle-float1"></path><path d="M885.19,460.715C921.549,460.249,951.089,435.367,969.851,404.219C989.36,371.833,1001.175,332.033,982.511,299.153C963.669,265.959,923.348,254.167,885.19,255.074C848.79,255.94,813.948,272.167,795.57,303.598C777.024,335.317,778.482,374.522,796.687,406.438C815.065,438.657,848.101,461.19,885.19,460.715" fill="rgba(28, 83, 142, 0.4)" class="triangle-float1"></path><path d="M783.865,113.792C809.512,113.374,836.048,107.271,849.938,85.707C864.908,62.465,866.051,32.027,851.783,8.348C837.916,-14.665,810.71,-25.07,783.865,-23.947C758.971,-22.906,738.328,-7.484,725.123,13.645C710.9,36.403,700.371,64.777,713.949,87.926C727.424,110.899,757.236,114.227,783.865,113.792" fill="rgba(28, 83, 142, 0.4)" class="triangle-float2"></path><path d="M740.857,156.35C763.173,157.313,787.521,151.825,798.628,132.445C809.693,113.139,801.114,89.995,789.904,70.773C778.804,51.741,762.862,34.485,740.857,33.39C717.118,32.208,693.631,44.4,682.554,65.429C672.07,85.331,678.98,108.87,691.122,127.805C702.181,145.051,720.389,155.467,740.857,156.35" fill="rgba(28, 83, 142, 0.4)" class="triangle-float3"></path><path d="M1407.036,669.918C1460.005,668.122,1499.625,625.309,1523.445,577.965C1544.708,535.704,1542.859,486.957,1519.9,445.594C1496.176,402.853,1455.92,368.264,1407.036,368.239C1358.117,368.214,1319.154,403.539,1293.976,445.481C1267.866,488.977,1253.281,541.043,1276.104,586.35C1301.07,635.91,1351.575,671.798,1407.036,669.918" fill="rgba(28, 83, 142, 0.4)" class="triangle-float1"></path></g><defs><mask id="SvgjsMask1009"><rect width="1440" height="560" fill="#ffffff"></rect></mask><style>
            @keyframes float1 {
                0%{transform: translate(0, 0)}
                50%{transform: translate(-10px, 0)}
                100%{transform: translate(0, 0)}
            }

            .triangle-float1 {
                animation: float1 5s infinite;
            }

            @keyframes float2 {
                0%{transform: translate(0, 0)}
                50%{transform: translate(-5px, -5px)}
                100%{transform: translate(0, 0)}
            }

            .triangle-float2 {
                animation: float2 4s infinite;
            }

            @keyframes float3 {
                0%{transform: translate(0, 0)}
                50%{transform: translate(0, -10px)}
                100%{transform: translate(0, 0)}
            }

            .triangle-float3 {
                animation: float3 6s infinite;
            }
        </style></defs></svg>