<svg xmlns="http://www.w3.org/2000/svg" version="1.1" xmlns:xlink="http://www.w3.org/1999/xlink" xmlns:svgjs="http://svgjs.com/svgjs" width="1000" height="560" preserveAspectRatio="none" viewBox="0 0 1000 560"><g mask="url(&quot;#SvgjsMask1025&quot;)" fill="none"><path d="M244.68,600.295C295.942,601.67,345.131,574.862,369.758,529.883C393.533,486.46,383.493,434.689,358.865,391.745C334.089,348.542,294.417,314.336,244.68,311.78C190.416,308.992,133.943,331.021,108.185,378.864C83.399,424.902,103.273,478.962,130.71,523.471C156.477,565.272,195.593,598.978,244.68,600.295" fill="rgba(28, 83, 142, 0.4)" class="triangle-float3"></path><path d="M538.299,272.209C559.779,271.641,578.364,257.572,588.032,238.382C596.813,220.953,592.957,200.638,582.732,184.015C573.049,168.275,556.757,158.43,538.299,157.536C517.993,156.553,496.833,162.288,485.729,179.318C473.66,197.829,472.904,221.909,483.788,241.141C494.829,260.65,515.891,272.802,538.299,272.209" fill="rgba(28, 83, 142, 0.4)" class="triangle-float2"></path><path d="M100.312,467.907C116.961,469.032,135.557,464.788,143.496,450.11C151.206,435.856,142.013,419.813,133.918,405.775C125.812,391.719,116.536,375.479,100.312,375.223C83.833,374.963,72.067,389.884,64.815,404.684C58.492,417.589,59.143,432.354,66.179,444.885C73.38,457.711,85.636,466.915,100.312,467.907" fill="rgba(28, 83, 142, 0.4)" class="triangle-float2"></path><path d="M522.828,209.507C570.858,208.072,616.5,187.366,641.594,146.388C667.85,103.514,671.166,50.191,647.58,5.792C622.468,-41.479,576.352,-77.726,522.828,-77.18C470.073,-76.642,428.535,-37.54,402.405,8.292C376.567,53.611,364.308,109.109,391.098,153.872C417.333,197.709,471.763,211.033,522.828,209.507" fill="rgba(28, 83, 142, 0.4)" class="triangle-float1"></path><path d="M628.139,650.779C663.828,652.73,697.969,632.785,715.183,601.462C731.835,571.161,727.254,533.843,708.294,504.93C691.063,478.654,659.52,470.334,628.139,468.728C592.623,466.91,550.238,465.168,532.388,495.925C514.505,526.738,537.413,562.469,556.149,592.77C573.52,620.863,595.158,648.976,628.139,650.779" fill="rgba(28, 83, 142, 0.4)" class="triangle-float2"></path><path d="M887.197,87.553C911.271,88.351,931.144,70.25,942.519,49.018C953.234,29.019,953.153,5.196,941.865,-14.486C930.519,-34.269,910.002,-47.235,887.197,-47.443C864.033,-47.654,841.625,-35.965,830.772,-15.5C820.485,3.899,827.336,26.289,837.882,45.549C848.997,65.848,864.067,86.786,887.197,87.553" fill="rgba(28, 83, 142, 0.4)" class="triangle-float2"></path></g><defs><mask id="SvgjsMask1025"><rect width="1000" height="560" fill="#ffffff"></rect></mask><style>
            @keyframes float1 {
                0%{transform: translate(0, 0)}
                50%{transform: translate(-10px, 0)}
                100%{transform: translate(0, 0)}
            }

            .triangle-float1 {
                animation: float1 5s infinite;
            }

            @keyframes float2 {
                0%{transform: translate(0, 0)}
                50%{transform: translate(-5px, -5px)}
                100%{transform: translate(0, 0)}
            }

            .triangle-float2 {
                animation: float2 4s infinite;
            }

            @keyframes float3 {
                0%{transform: translate(0, 0)}
                50%{transform: translate(0, -10px)}
                100%{transform: translate(0, 0)}
            }

            .triangle-float3 {
                animation: float3 6s infinite;
            }
        </style></defs></svg>